<mxfile host="app.diagrams.net" agent="Mozilla/5.0 (X11; Linux x86_64) AppleWebKit/537.36 (KHTML, like Gecko) Chrome/133.0.0.0 Safari/537.36" version="26.0.16">
  <diagram name="PÃ¡gina-1" id="SE6UqvYKq5zN3hIR0EJb">
    <mxGraphModel dx="1363" dy="833" grid="1" gridSize="10" guides="1" tooltips="1" connect="1" arrows="1" fold="1" page="1" pageScale="1" pageWidth="827" pageHeight="1169" math="0" shadow="0">
      <root>
        <mxCell id="0" />
        <mxCell id="1" parent="0" />
        <mxCell id="1QGjstKpQ8lklNx9dKl6-1" value="&lt;p style=&quot;margin:0px;margin-top:4px;text-align:center;&quot;&gt;&lt;b&gt;sourceData: TempData&lt;/b&gt;&lt;/p&gt;" style="verticalAlign=top;align=left;overflow=fill;html=1;whiteSpace=wrap;" vertex="1" parent="1">
          <mxGeometry x="370" y="30" width="140" height="60" as="geometry" />
        </mxCell>
        <mxCell id="1QGjstKpQ8lklNx9dKl6-2" value="&lt;p style=&quot;margin:0px;margin-top:4px;text-align:center;&quot;&gt;&lt;b&gt;TempSensor: Client&lt;/b&gt;&lt;/p&gt;" style="verticalAlign=top;align=left;overflow=fill;html=1;whiteSpace=wrap;" vertex="1" parent="1">
          <mxGeometry x="330" y="120" width="140" height="60" as="geometry" />
        </mxCell>
        <mxCell id="1QGjstKpQ8lklNx9dKl6-3" value="&lt;p style=&quot;margin:0px;margin-top:4px;text-align:center;&quot;&gt;&lt;b&gt;viewData: TempData&lt;/b&gt;&lt;/p&gt;" style="verticalAlign=top;align=left;overflow=fill;html=1;whiteSpace=wrap;" vertex="1" parent="1">
          <mxGeometry x="380" y="210" width="140" height="60" as="geometry" />
        </mxCell>
        <mxCell id="1QGjstKpQ8lklNx9dKl6-4" value="&lt;p style=&quot;margin:0px;margin-top:4px;text-align:center;&quot;&gt;&lt;b&gt;tempView: Client&lt;/b&gt;&lt;/p&gt;" style="verticalAlign=top;align=left;overflow=fill;html=1;whiteSpace=wrap;" vertex="1" parent="1">
          <mxGeometry x="330" y="310" width="140" height="60" as="geometry" />
        </mxCell>
        <mxCell id="1QGjstKpQ8lklNx9dKl6-5" value="&lt;p style=&quot;margin:0px;margin-top:4px;text-align:center;&quot;&gt;&lt;b&gt;storicalData: TempData&lt;/b&gt;&lt;/p&gt;" style="verticalAlign=top;align=left;overflow=fill;html=1;whiteSpace=wrap;" vertex="1" parent="1">
          <mxGeometry x="370" y="400" width="140" height="60" as="geometry" />
        </mxCell>
        <mxCell id="1QGjstKpQ8lklNx9dKl6-6" value="&lt;p style=&quot;margin:0px;margin-top:4px;text-align:center;&quot;&gt;&lt;b&gt;TempHistory: Client&lt;/b&gt;&lt;/p&gt;" style="verticalAlign=top;align=left;overflow=fill;html=1;whiteSpace=wrap;" vertex="1" parent="1">
          <mxGeometry x="330" y="500" width="140" height="60" as="geometry" />
        </mxCell>
        <mxCell id="1QGjstKpQ8lklNx9dKl6-7" value="&lt;p style=&quot;margin:0px;margin-top:4px;text-align:center;&quot;&gt;&lt;b&gt;TempDataPool: &lt;br&gt;ResourcePoolManager&lt;/b&gt;&lt;/p&gt;" style="verticalAlign=top;align=left;overflow=fill;html=1;whiteSpace=wrap;" vertex="1" parent="1">
          <mxGeometry x="590" y="220" width="240" height="60" as="geometry" />
        </mxCell>
        <mxCell id="1QGjstKpQ8lklNx9dKl6-8" value="&lt;p style=&quot;margin:0px;margin-top:4px;text-align:center;&quot;&gt;&lt;b&gt;TempData: 1000&lt;/b&gt;&lt;/p&gt;" style="verticalAlign=top;align=left;overflow=fill;html=1;whiteSpace=wrap;" vertex="1" parent="1">
          <mxGeometry x="770" y="210" width="140" height="20" as="geometry" />
        </mxCell>
        <mxCell id="1QGjstKpQ8lklNx9dKl6-9" value="" style="endArrow=open;endFill=1;endSize=12;html=1;rounded=0;entryX=0.5;entryY=1;entryDx=0;entryDy=0;strokeWidth=3;exitX=0.78;exitY=0.01;exitDx=0;exitDy=0;exitPerimeter=0;" edge="1" parent="1" source="1QGjstKpQ8lklNx9dKl6-2">
          <mxGeometry width="160" relative="1" as="geometry">
            <mxPoint x="442.98" y="123.98000000000002" as="sourcePoint" />
            <mxPoint x="440" y="89" as="targetPoint" />
          </mxGeometry>
        </mxCell>
        <mxCell id="1QGjstKpQ8lklNx9dKl6-10" value="" style="endArrow=open;endFill=1;endSize=12;html=1;rounded=0;strokeWidth=3;exitX=1;exitY=0.5;exitDx=0;exitDy=0;" edge="1" parent="1" source="1QGjstKpQ8lklNx9dKl6-2" target="1QGjstKpQ8lklNx9dKl6-7">
          <mxGeometry width="160" relative="1" as="geometry">
            <mxPoint x="410" y="130" as="sourcePoint" />
            <mxPoint x="410" y="90" as="targetPoint" />
            <Array as="points">
              <mxPoint x="710" y="150" />
            </Array>
          </mxGeometry>
        </mxCell>
        <mxCell id="1QGjstKpQ8lklNx9dKl6-12" value="" style="endArrow=open;endFill=1;endSize=12;html=1;rounded=0;strokeWidth=3;exitX=-0.007;exitY=0.367;exitDx=0;exitDy=0;exitPerimeter=0;entryX=0;entryY=0.5;entryDx=0;entryDy=0;" edge="1" parent="1" source="1QGjstKpQ8lklNx9dKl6-2" target="1QGjstKpQ8lklNx9dKl6-6">
          <mxGeometry width="160" relative="1" as="geometry">
            <mxPoint x="480" y="160" as="sourcePoint" />
            <mxPoint x="720" y="230" as="targetPoint" />
            <Array as="points">
              <mxPoint x="250" y="142" />
              <mxPoint x="250" y="530" />
            </Array>
          </mxGeometry>
        </mxCell>
        <mxCell id="1QGjstKpQ8lklNx9dKl6-13" value="" style="endArrow=open;endFill=1;endSize=12;html=1;rounded=0;strokeWidth=3;" edge="1" parent="1" target="1QGjstKpQ8lklNx9dKl6-4">
          <mxGeometry width="160" relative="1" as="geometry">
            <mxPoint x="330" y="160" as="sourcePoint" />
            <mxPoint x="340" y="540" as="targetPoint" />
            <Array as="points">
              <mxPoint x="270" y="160" />
              <mxPoint x="270" y="340" />
            </Array>
          </mxGeometry>
        </mxCell>
        <mxCell id="1QGjstKpQ8lklNx9dKl6-14" value="" style="endArrow=open;endFill=1;endSize=12;html=1;rounded=0;strokeWidth=3;exitX=1.029;exitY=0.383;exitDx=0;exitDy=0;exitPerimeter=0;entryX=0.5;entryY=1;entryDx=0;entryDy=0;" edge="1" parent="1" source="1QGjstKpQ8lklNx9dKl6-6" target="1QGjstKpQ8lklNx9dKl6-7">
          <mxGeometry width="160" relative="1" as="geometry">
            <mxPoint x="480" y="160" as="sourcePoint" />
            <mxPoint x="720" y="230" as="targetPoint" />
            <Array as="points">
              <mxPoint x="710" y="520" />
            </Array>
          </mxGeometry>
        </mxCell>
        <mxCell id="1QGjstKpQ8lklNx9dKl6-15" value="" style="endArrow=open;endFill=1;endSize=12;html=1;rounded=0;entryX=0.457;entryY=0.967;entryDx=0;entryDy=0;strokeWidth=3;exitX=0.75;exitY=0;exitDx=0;exitDy=0;entryPerimeter=0;" edge="1" parent="1" source="1QGjstKpQ8lklNx9dKl6-6" target="1QGjstKpQ8lklNx9dKl6-5">
          <mxGeometry width="160" relative="1" as="geometry">
            <mxPoint x="410" y="130" as="sourcePoint" />
            <mxPoint x="410" y="90" as="targetPoint" />
            <Array as="points" />
          </mxGeometry>
        </mxCell>
        <mxCell id="1QGjstKpQ8lklNx9dKl6-17" value="" style="endArrow=open;endFill=1;endSize=12;html=1;rounded=0;entryX=0.5;entryY=1;entryDx=0;entryDy=0;strokeWidth=3;" edge="1" parent="1" target="1QGjstKpQ8lklNx9dKl6-3">
          <mxGeometry width="160" relative="1" as="geometry">
            <mxPoint x="450" y="310" as="sourcePoint" />
            <mxPoint x="404" y="468" as="targetPoint" />
            <Array as="points" />
          </mxGeometry>
        </mxCell>
        <mxCell id="1QGjstKpQ8lklNx9dKl6-18" value="" style="endArrow=open;endFill=1;endSize=12;html=1;rounded=0;strokeWidth=3;exitX=1;exitY=0.5;exitDx=0;exitDy=0;entryX=0.25;entryY=1;entryDx=0;entryDy=0;" edge="1" parent="1" source="1QGjstKpQ8lklNx9dKl6-4" target="1QGjstKpQ8lklNx9dKl6-7">
          <mxGeometry width="160" relative="1" as="geometry">
            <mxPoint x="480" y="160" as="sourcePoint" />
            <mxPoint x="720" y="230" as="targetPoint" />
            <Array as="points">
              <mxPoint x="650" y="340" />
            </Array>
          </mxGeometry>
        </mxCell>
      </root>
    </mxGraphModel>
  </diagram>
</mxfile>
